<?xml version="1.0" encoding="UTF-8" standalone="no"?>
<!DOCTYPE svg PUBLIC "-//W3C//DTD SVG 1.1//EN"
 "http://www.w3.org/Graphics/SVG/1.1/DTD/svg11.dtd">
<!-- Generated by graphviz version 2.40.1 (20161225.0304)
 -->
<!-- Title: opp Pages: 1 -->
<svg width="866pt" height="140pt"
 viewBox="0.00 0.00 866.28 140.00" xmlns="http://www.w3.org/2000/svg" xmlns:xlink="http://www.w3.org/1999/xlink">
<g id="graph0" class="graph" transform="scale(1 1) rotate(0) translate(4 136)">
<title>opp</title>
<polygon fill="transparent" stroke="transparent" points="-4,4 -4,-136 862.2845,-136 862.2845,4 -4,4"/>
<!-- App -->
<g id="node1" class="node">
<title>App</title>
<g id="a_node1"><a xlink:href="App.html" xlink:title="Simple Module App" target="_parent">
<polygon fill="#fffcaf" stroke="#000000" points="54,-20 0,-20 0,0 54,0 54,-20"/>
<text text-anchor="middle" x="27" y="-7" font-family="Helvetica,sans-Serif" font-size="10.00" fill="#000000">App</text>
</a>
</g>
</g>
<!-- Node -->
<g id="node2" class="node">
<title>Node</title>
<g id="a_node2"><a xlink:href="Node.html" xlink:title="Compound Module Node" target="_parent">
<polygon fill="#fffcaf" stroke="#000000" points="178,-76 124,-76 124,-56 178,-56 178,-76"/>
<text text-anchor="middle" x="151" y="-63" font-family="Helvetica,sans-Serif" font-size="10.00" fill="#000000">Node</text>
</a>
</g>
</g>
<!-- Node&#45;&gt;App -->
<g id="edge1" class="edge">
<title>Node&#45;&gt;App</title>
<path fill="none" stroke="#000000" d="M128.8313,-55.9883C109.2917,-47.164 80.599,-34.206 58.6464,-24.2919"/>
<polygon fill="#000000" stroke="#000000" points="59.9492,-21.0399 49.3949,-20.1138 57.068,-27.4195 59.9492,-21.0399"/>
</g>
<!-- IdealChannel -->
<g id="node8" class="node">
<title>IdealChannel</title>
<g id="a_node8"><a xlink:href="ned.IdealChannel.html" xlink:title="Channel IdealChannel" target="_parent">
<polygon fill="#d0ffd0" stroke="#000000" points="146.4081,-20 71.5919,-20 71.5919,0 146.4081,0 146.4081,-20"/>
<text text-anchor="middle" x="109" y="-7" font-family="Helvetica,sans-Serif" font-size="10.00" fill="#000000">IdealChannel</text>
</a>
</g>
</g>
<!-- Node&#45;&gt;IdealChannel -->
<g id="edge2" class="edge">
<title>Node&#45;&gt;IdealChannel</title>
<path fill="none" stroke="#000000" d="M143.4912,-55.9883C137.7694,-48.3592 129.7303,-37.6405 122.8526,-28.4702"/>
<polygon fill="#000000" stroke="#000000" points="125.528,-26.2039 116.7279,-20.3039 119.9279,-30.4039 125.528,-26.2039"/>
</g>
<!-- L2Queue -->
<g id="node10" class="node">
<title>L2Queue</title>
<g id="a_node10"><a xlink:href="L2Queue.html" xlink:title="Simple Module L2Queue" target="_parent">
<polygon fill="#fffcaf" stroke="#000000" points="221.6332,-20 164.3668,-20 164.3668,0 221.6332,0 221.6332,-20"/>
<text text-anchor="middle" x="193" y="-7" font-family="Helvetica,sans-Serif" font-size="10.00" fill="#000000">L2Queue</text>
</a>
</g>
</g>
<!-- Node&#45;&gt;L2Queue -->
<g id="edge3" class="edge">
<title>Node&#45;&gt;L2Queue</title>
<path fill="none" stroke="#000000" d="M158.5088,-55.9883C164.2306,-48.3592 172.2697,-37.6405 179.1474,-28.4702"/>
<polygon fill="#000000" stroke="#000000" points="182.0721,-30.4039 185.2721,-20.3039 176.472,-26.2039 182.0721,-30.4039"/>
</g>
<!-- Routing -->
<g id="node13" class="node">
<title>Routing</title>
<g id="a_node13"><a xlink:href="Routing.html" xlink:title="Simple Module Routing" target="_parent">
<polygon fill="#fffcaf" stroke="#000000" points="294,-20 240,-20 240,0 294,0 294,-20"/>
<text text-anchor="middle" x="267" y="-7" font-family="Helvetica,sans-Serif" font-size="10.00" fill="#000000">Routing</text>
</a>
</g>
</g>
<!-- Node&#45;&gt;Routing -->
<g id="edge5" class="edge">
<title>Node&#45;&gt;Routing</title>
<path fill="none" stroke="#000000" d="M171.7385,-55.9883C189.8535,-47.2431 216.3782,-34.4381 236.8413,-24.5594"/>
<polygon fill="#000000" stroke="#000000" points="238.5661,-27.6133 246.05,-20.1138 235.5228,-21.3094 238.5661,-27.6133"/>
</g>
<!-- BurstyApp -->
<g id="node3" class="node">
<title>BurstyApp</title>
<g id="a_node3"><a xlink:href="BurstyApp.html" xlink:title="Simple Module BurstyApp" target="_parent">
<polygon fill="#fffcaf" stroke="#000000" points="317.1231,-132 254.8769,-132 254.8769,-112 317.1231,-112 317.1231,-132"/>
<text text-anchor="middle" x="286" y="-119" font-family="Helvetica,sans-Serif" font-size="10.00" fill="#000000">BurstyApp</text>
</a>
</g>
</g>
<!-- DatarateChannel -->
<g id="node4" class="node">
<title>DatarateChannel</title>
<g id="a_node4"><a xlink:href="ned.DatarateChannel.html" xlink:title="Channel DatarateChannel" target="_parent">
<polygon fill="#d0ffd0" stroke="#000000" points="426.576,-132 335.424,-132 335.424,-112 426.576,-112 426.576,-132"/>
<text text-anchor="middle" x="381" y="-119" font-family="Helvetica,sans-Serif" font-size="10.00" fill="#000000">DatarateChannel</text>
</a>
</g>
</g>
<!-- DelayChannel -->
<g id="node5" class="node">
<title>DelayChannel</title>
<g id="a_node5"><a xlink:href="ned.DelayChannel.html" xlink:title="Channel DelayChannel" target="_parent">
<polygon fill="#d0ffd0" stroke="#000000" points="523.2893,-132 444.7107,-132 444.7107,-112 523.2893,-112 523.2893,-132"/>
<text text-anchor="middle" x="484" y="-119" font-family="Helvetica,sans-Serif" font-size="10.00" fill="#000000">DelayChannel</text>
</a>
</g>
</g>
<!-- IApp -->
<g id="node6" class="node">
<title>IApp</title>
<g id="a_node6"><a xlink:href="IApp.html" xlink:title="Module Interface IApp" target="_parent">
<polygon fill="#fffcaf" stroke="#000000" stroke-dasharray="5,2" points="595,-132 541,-132 541,-112 595,-112 595,-132"/>
<text text-anchor="middle" x="568" y="-119" font-family="Helvetica,sans-Serif" font-size="10.00" fill="#000000">IApp</text>
</a>
</g>
</g>
<!-- IBidirectionalChannel -->
<g id="node7" class="node">
<title>IBidirectionalChannel</title>
<g id="a_node7"><a xlink:href="ned.IBidirectionalChannel.html" xlink:title="Module Interface IBidirectionalChannel" target="_parent">
<polygon fill="#fffcaf" stroke="#000000" stroke-dasharray="5,2" points="723.461,-132 612.539,-132 612.539,-112 723.461,-112 723.461,-132"/>
<text text-anchor="middle" x="668" y="-119" font-family="Helvetica,sans-Serif" font-size="10.00" fill="#000000">IBidirectionalChannel</text>
</a>
</g>
</g>
<!-- IUnidirectionalChannel -->
<g id="node9" class="node">
<title>IUnidirectionalChannel</title>
<g id="a_node9"><a xlink:href="ned.IUnidirectionalChannel.html" xlink:title="Module Interface IUnidirectionalChannel" target="_parent">
<polygon fill="#fffcaf" stroke="#000000" stroke-dasharray="5,2" points="858.0698,-132 741.9302,-132 741.9302,-112 858.0698,-112 858.0698,-132"/>
<text text-anchor="middle" x="800" y="-119" font-family="Helvetica,sans-Serif" font-size="10.00" fill="#000000">IUnidirectionalChannel</text>
</a>
</g>
</g>
<!-- networkTopoInfo -->
<g id="node11" class="node">
<title>networkTopoInfo</title>
<g id="a_node11"><a xlink:href="networkTopoInfo.html" xlink:title="Simple Module networkTopoInfo" target="_parent">
<polygon fill="#fffcaf" stroke="#000000" points="286.4672,-76 195.5328,-76 195.5328,-56 286.4672,-56 286.4672,-76"/>
<text text-anchor="middle" x="241" y="-63" font-family="Helvetica,sans-Serif" font-size="10.00" fill="#000000">networkTopoInfo</text>
</a>
</g>
</g>
<!-- RandomGraph -->
<g id="node12" class="node">
<title>RandomGraph</title>
<g id="a_node12"><a xlink:href="RandomGraph.html" xlink:title="Network RandomGraph" target="_parent">
<polygon fill="#d0d0ff" stroke="#000000" points="236.5701,-132 155.4299,-132 155.4299,-112 236.5701,-112 236.5701,-132"/>
<text text-anchor="middle" x="196" y="-119" font-family="Helvetica,sans-Serif" font-size="10.00" fill="#000000">RandomGraph</text>
</a>
</g>
</g>
<!-- RandomGraph&#45;&gt;Node -->
<g id="edge6" class="edge">
<title>RandomGraph&#45;&gt;Node</title>
<path fill="none" stroke="#000000" d="M187.9549,-111.9883C181.7612,-104.2806 173.0332,-93.4191 165.6146,-84.187"/>
<polygon fill="#000000" stroke="#000000" points="168.2721,-81.9066 159.2799,-76.3039 162.8156,-86.2914 168.2721,-81.9066"/>
</g>
<!-- RandomGraph&#45;&gt;networkTopoInfo -->
<g id="edge4" class="edge">
<title>RandomGraph&#45;&gt;networkTopoInfo</title>
<path fill="none" stroke="#000000" d="M204.0451,-111.9883C210.2388,-104.2806 218.9668,-93.4191 226.3854,-84.187"/>
<polygon fill="#000000" stroke="#000000" points="229.1844,-86.2914 232.7201,-76.3039 223.7279,-81.9066 229.1844,-86.2914"/>
</g>
</g>
</svg>
