<?xml version="1.0" encoding="UTF-8" standalone="no"?>
<!DOCTYPE svg PUBLIC "-//W3C//DTD SVG 1.1//EN"
 "http://www.w3.org/Graphics/SVG/1.1/DTD/svg11.dtd">
<!-- Generated by graphviz version 2.40.1 (20161225.0304)
 -->
<!-- Title: opp Pages: 1 -->
<svg width="1091pt" height="84pt"
 viewBox="0.00 0.00 1091.00 84.00" xmlns="http://www.w3.org/2000/svg" xmlns:xlink="http://www.w3.org/1999/xlink">
<g id="graph0" class="graph" transform="scale(1 1) rotate(0) translate(4 80)">
<title>opp</title>
<polygon fill="transparent" stroke="transparent" points="-4,4 -4,-80 1087,-80 1087,4 -4,4"/>
<!-- App -->
<g id="node1" class="node">
<title>App</title>
<g id="a_node1"><a xlink:href="App.html" xlink:title="Simple Module App" target="_parent">
<polygon fill="#fffcaf" stroke="#000000" points="54,-20 0,-20 0,0 54,0 54,-20"/>
<text text-anchor="middle" x="27" y="-7" font-family="Helvetica,sans-Serif" font-size="10.00" fill="#000000">App</text>
</a>
</g>
</g>
<!-- IApp -->
<g id="node2" class="node">
<title>IApp</title>
<g id="a_node2"><a xlink:href="IApp.html" xlink:title="Module Interface IApp" target="_parent">
<polygon fill="#fffcaf" stroke="#000000" stroke-dasharray="5,2" points="92,-76 38,-76 38,-56 92,-56 92,-76"/>
<text text-anchor="middle" x="65" y="-63" font-family="Helvetica,sans-Serif" font-size="10.00" fill="#000000">IApp</text>
</a>
</g>
</g>
<!-- IApp&#45;&gt;App -->
<g id="edge1" class="edge">
<title>IApp&#45;&gt;App</title>
<path fill="none" stroke="#000000" stroke-dasharray="5,2" d="M58.2064,-55.9883C51.375,-45.9211 40.8929,-30.4737 33.9919,-20.3039"/>
</g>
<!-- BurstyApp -->
<g id="node3" class="node">
<title>BurstyApp</title>
<g id="a_node3"><a xlink:href="BurstyApp.html" xlink:title="Simple Module BurstyApp" target="_parent">
<polygon fill="#fffcaf" stroke="#000000" points="134.1231,-20 71.8769,-20 71.8769,0 134.1231,0 134.1231,-20"/>
<text text-anchor="middle" x="103" y="-7" font-family="Helvetica,sans-Serif" font-size="10.00" fill="#000000">BurstyApp</text>
</a>
</g>
</g>
<!-- IApp&#45;&gt;BurstyApp -->
<g id="edge2" class="edge">
<title>IApp&#45;&gt;BurstyApp</title>
<path fill="none" stroke="#000000" stroke-dasharray="5,2" d="M71.7936,-55.9883C78.625,-45.9211 89.1071,-30.4737 96.0081,-20.3039"/>
</g>
<!-- DatarateChannel -->
<g id="node4" class="node">
<title>DatarateChannel</title>
<g id="a_node4"><a xlink:href="ned.DatarateChannel.html" xlink:title="Channel DatarateChannel" target="_parent">
<polygon fill="#d0ffd0" stroke="#000000" points="201.576,-76 110.424,-76 110.424,-56 201.576,-56 201.576,-76"/>
<text text-anchor="middle" x="156" y="-63" font-family="Helvetica,sans-Serif" font-size="10.00" fill="#000000">DatarateChannel</text>
</a>
</g>
</g>
<!-- DelayChannel -->
<g id="node5" class="node">
<title>DelayChannel</title>
<g id="a_node5"><a xlink:href="ned.DelayChannel.html" xlink:title="Channel DelayChannel" target="_parent">
<polygon fill="#d0ffd0" stroke="#000000" points="298.2893,-76 219.7107,-76 219.7107,-56 298.2893,-56 298.2893,-76"/>
<text text-anchor="middle" x="259" y="-63" font-family="Helvetica,sans-Serif" font-size="10.00" fill="#000000">DelayChannel</text>
</a>
</g>
</g>
<!-- IBidirectionalChannel -->
<g id="node6" class="node">
<title>IBidirectionalChannel</title>
<g id="a_node6"><a xlink:href="ned.IBidirectionalChannel.html" xlink:title="Module Interface IBidirectionalChannel" target="_parent">
<polygon fill="#fffcaf" stroke="#000000" stroke-dasharray="5,2" points="427.461,-76 316.539,-76 316.539,-56 427.461,-56 427.461,-76"/>
<text text-anchor="middle" x="372" y="-63" font-family="Helvetica,sans-Serif" font-size="10.00" fill="#000000">IBidirectionalChannel</text>
</a>
</g>
</g>
<!-- IdealChannel -->
<g id="node7" class="node">
<title>IdealChannel</title>
<g id="a_node7"><a xlink:href="ned.IdealChannel.html" xlink:title="Channel IdealChannel" target="_parent">
<polygon fill="#d0ffd0" stroke="#000000" points="520.4081,-76 445.5919,-76 445.5919,-56 520.4081,-56 520.4081,-76"/>
<text text-anchor="middle" x="483" y="-63" font-family="Helvetica,sans-Serif" font-size="10.00" fill="#000000">IdealChannel</text>
</a>
</g>
</g>
<!-- IUnidirectionalChannel -->
<g id="node8" class="node">
<title>IUnidirectionalChannel</title>
<g id="a_node8"><a xlink:href="ned.IUnidirectionalChannel.html" xlink:title="Module Interface IUnidirectionalChannel" target="_parent">
<polygon fill="#fffcaf" stroke="#000000" stroke-dasharray="5,2" points="655.0698,-76 538.9302,-76 538.9302,-56 655.0698,-56 655.0698,-76"/>
<text text-anchor="middle" x="597" y="-63" font-family="Helvetica,sans-Serif" font-size="10.00" fill="#000000">IUnidirectionalChannel</text>
</a>
</g>
</g>
<!-- L2Queue -->
<g id="node9" class="node">
<title>L2Queue</title>
<g id="a_node9"><a xlink:href="L2Queue.html" xlink:title="Simple Module L2Queue" target="_parent">
<polygon fill="#fffcaf" stroke="#000000" points="730.6332,-76 673.3668,-76 673.3668,-56 730.6332,-56 730.6332,-76"/>
<text text-anchor="middle" x="702" y="-63" font-family="Helvetica,sans-Serif" font-size="10.00" fill="#000000">L2Queue</text>
</a>
</g>
</g>
<!-- networkTopoInfo -->
<g id="node10" class="node">
<title>networkTopoInfo</title>
<g id="a_node10"><a xlink:href="networkTopoInfo.html" xlink:title="Simple Module networkTopoInfo" target="_parent">
<polygon fill="#fffcaf" stroke="#000000" points="839.4672,-76 748.5328,-76 748.5328,-56 839.4672,-56 839.4672,-76"/>
<text text-anchor="middle" x="794" y="-63" font-family="Helvetica,sans-Serif" font-size="10.00" fill="#000000">networkTopoInfo</text>
</a>
</g>
</g>
<!-- Node -->
<g id="node11" class="node">
<title>Node</title>
<g id="a_node11"><a xlink:href="Node.html" xlink:title="Compound Module Node" target="_parent">
<polygon fill="#fffcaf" stroke="#000000" points="911,-76 857,-76 857,-56 911,-56 911,-76"/>
<text text-anchor="middle" x="884" y="-63" font-family="Helvetica,sans-Serif" font-size="10.00" fill="#000000">Node</text>
</a>
</g>
</g>
<!-- RandomGraph -->
<g id="node12" class="node">
<title>RandomGraph</title>
<g id="a_node12"><a xlink:href="RandomGraph.html" xlink:title="Network RandomGraph" target="_parent">
<polygon fill="#d0d0ff" stroke="#000000" points="1010.5701,-76 929.4299,-76 929.4299,-56 1010.5701,-56 1010.5701,-76"/>
<text text-anchor="middle" x="970" y="-63" font-family="Helvetica,sans-Serif" font-size="10.00" fill="#000000">RandomGraph</text>
</a>
</g>
</g>
<!-- Routing -->
<g id="node13" class="node">
<title>Routing</title>
<g id="a_node13"><a xlink:href="Routing.html" xlink:title="Simple Module Routing" target="_parent">
<polygon fill="#fffcaf" stroke="#000000" points="1083,-76 1029,-76 1029,-56 1083,-56 1083,-76"/>
<text text-anchor="middle" x="1056" y="-63" font-family="Helvetica,sans-Serif" font-size="10.00" fill="#000000">Routing</text>
</a>
</g>
</g>
</g>
</svg>
