<?xml version="1.0" encoding="UTF-8" standalone="no"?>
<!DOCTYPE svg PUBLIC "-//W3C//DTD SVG 1.1//EN"
 "http://www.w3.org/Graphics/SVG/1.1/DTD/svg11.dtd">
<!-- Generated by graphviz version 2.40.1 (20161225.0304)
 -->
<!-- Title: opp Pages: 1 -->
<svg width="142pt" height="84pt"
 viewBox="0.00 0.00 142.06 84.00" xmlns="http://www.w3.org/2000/svg" xmlns:xlink="http://www.w3.org/1999/xlink">
<g id="graph0" class="graph" transform="scale(1 1) rotate(0) translate(4 80)">
<title>opp</title>
<polygon fill="transparent" stroke="transparent" points="-4,4 -4,-80 138.0615,-80 138.0615,4 -4,4"/>
<!-- IApp -->
<g id="node1" class="node">
<title>IApp</title>
<g id="a_node1"><a xlink:href="IApp.html" xlink:title="Module Interface IApp" target="_parent">
<polygon fill="#fff700" stroke="#000000" stroke-dasharray="5,2" points="92,-76 38,-76 38,-56 92,-56 92,-76"/>
<text text-anchor="middle" x="65" y="-63" font-family="Helvetica,sans-Serif" font-size="10.00" fill="#000000">IApp</text>
</a>
</g>
</g>
<!-- App -->
<g id="node2" class="node">
<title>App</title>
<g id="a_node2"><a xlink:href="App.html" xlink:title="Simple Module App" target="_parent">
<polygon fill="#fffcaf" stroke="#000000" points="54,-20 0,-20 0,0 54,0 54,-20"/>
<text text-anchor="middle" x="27" y="-7" font-family="Helvetica,sans-Serif" font-size="10.00" fill="#000000">App</text>
</a>
</g>
</g>
<!-- IApp&#45;&gt;App -->
<g id="edge1" class="edge">
<title>IApp&#45;&gt;App</title>
<path fill="none" stroke="#000000" stroke-dasharray="5,2" d="M58.2064,-55.9883C51.375,-45.9211 40.8929,-30.4737 33.9919,-20.3039"/>
</g>
<!-- BurstyApp -->
<g id="node3" class="node">
<title>BurstyApp</title>
<g id="a_node3"><a xlink:href="BurstyApp.html" xlink:title="Simple Module BurstyApp" target="_parent">
<polygon fill="#fffcaf" stroke="#000000" points="134.1231,-20 71.8769,-20 71.8769,0 134.1231,0 134.1231,-20"/>
<text text-anchor="middle" x="103" y="-7" font-family="Helvetica,sans-Serif" font-size="10.00" fill="#000000">BurstyApp</text>
</a>
</g>
</g>
<!-- IApp&#45;&gt;BurstyApp -->
<g id="edge2" class="edge">
<title>IApp&#45;&gt;BurstyApp</title>
<path fill="none" stroke="#000000" stroke-dasharray="5,2" d="M71.7936,-55.9883C78.625,-45.9211 89.1071,-30.4737 96.0081,-20.3039"/>
</g>
</g>
</svg>
