<?xml version="1.0" encoding="UTF-8" standalone="no"?>
<!DOCTYPE svg PUBLIC "-//W3C//DTD SVG 1.1//EN"
 "http://www.w3.org/Graphics/SVG/1.1/DTD/svg11.dtd">
<!-- Generated by graphviz version 2.40.1 (20161225.0304)
 -->
<!-- Title: opp Pages: 1 -->
<svg width="302pt" height="140pt"
 viewBox="0.00 0.00 302.45 140.00" xmlns="http://www.w3.org/2000/svg" xmlns:xlink="http://www.w3.org/1999/xlink">
<g id="graph0" class="graph" transform="scale(1 1) rotate(0) translate(4 136)">
<title>opp</title>
<polygon fill="transparent" stroke="transparent" points="-4,4 -4,-136 298.454,-136 298.454,4 -4,4"/>
<!-- Node -->
<g id="node1" class="node">
<title>Node</title>
<g id="a_node1"><a xlink:href="Node.html" xlink:title="Compound Module Node" target="_parent">
<polygon fill="#fff700" stroke="#000000" points="163,-76 109,-76 109,-56 163,-56 163,-76"/>
<text text-anchor="middle" x="136" y="-63" font-family="Helvetica,sans-Serif" font-size="10.00" fill="#000000">Node</text>
</a>
</g>
</g>
<!-- App -->
<g id="node2" class="node">
<title>App</title>
<g id="a_node2"><a xlink:href="App.html" xlink:title="Simple Module App" target="_parent">
<polygon fill="#fffcaf" stroke="#000000" points="54,-20 0,-20 0,0 54,0 54,-20"/>
<text text-anchor="middle" x="27" y="-7" font-family="Helvetica,sans-Serif" font-size="10.00" fill="#000000">App</text>
</a>
</g>
</g>
<!-- Node&#45;&gt;App -->
<g id="edge1" class="edge">
<title>Node&#45;&gt;App</title>
<path fill="none" stroke="#000000" d="M116.513,-55.9883C99.5681,-47.2827 74.7924,-34.5539 55.6002,-24.6937"/>
<polygon fill="#000000" stroke="#000000" points="57.18,-21.5705 46.6858,-20.1138 53.9812,-27.7968 57.18,-21.5705"/>
</g>
<!-- Routing -->
<g id="node3" class="node">
<title>Routing</title>
<g id="a_node3"><a xlink:href="Routing.html" xlink:title="Simple Module Routing" target="_parent">
<polygon fill="#fffcaf" stroke="#000000" points="126,-20 72,-20 72,0 126,0 126,-20"/>
<text text-anchor="middle" x="99" y="-7" font-family="Helvetica,sans-Serif" font-size="10.00" fill="#000000">Routing</text>
</a>
</g>
</g>
<!-- Node&#45;&gt;Routing -->
<g id="edge2" class="edge">
<title>Node&#45;&gt;Routing</title>
<path fill="none" stroke="#000000" d="M129.3851,-55.9883C124.3965,-48.4379 117.4082,-37.8611 111.3912,-28.7543"/>
<polygon fill="#000000" stroke="#000000" points="114.2407,-26.7178 105.8079,-20.3039 108.4004,-30.5767 114.2407,-26.7178"/>
</g>
<!-- L2Queue -->
<g id="node4" class="node">
<title>L2Queue</title>
<g id="a_node4"><a xlink:href="L2Queue.html" xlink:title="Simple Module L2Queue" target="_parent">
<polygon fill="#fffcaf" stroke="#000000" points="201.6332,-20 144.3668,-20 144.3668,0 201.6332,0 201.6332,-20"/>
<text text-anchor="middle" x="173" y="-7" font-family="Helvetica,sans-Serif" font-size="10.00" fill="#000000">L2Queue</text>
</a>
</g>
</g>
<!-- Node&#45;&gt;L2Queue -->
<g id="edge3" class="edge">
<title>Node&#45;&gt;L2Queue</title>
<path fill="none" stroke="#000000" d="M142.6149,-55.9883C147.6035,-48.4379 154.5918,-37.8611 160.6088,-28.7543"/>
<polygon fill="#000000" stroke="#000000" points="163.5996,-30.5767 166.1921,-20.3039 157.7593,-26.7178 163.5996,-30.5767"/>
</g>
<!-- IdealChannel -->
<g id="node5" class="node">
<title>IdealChannel</title>
<g id="a_node5"><a xlink:href="ned.IdealChannel.html" xlink:title="Channel IdealChannel" target="_parent">
<polygon fill="#d0ffd0" stroke="#000000" points="294.4081,-20 219.5919,-20 219.5919,0 294.4081,0 294.4081,-20"/>
<text text-anchor="middle" x="257" y="-7" font-family="Helvetica,sans-Serif" font-size="10.00" fill="#000000">IdealChannel</text>
</a>
</g>
</g>
<!-- Node&#45;&gt;IdealChannel -->
<g id="edge4" class="edge">
<title>Node&#45;&gt;IdealChannel</title>
<path fill="none" stroke="#000000" d="M157.6324,-55.9883C176.6137,-47.2036 204.4468,-34.3222 225.8307,-24.4255"/>
<polygon fill="#000000" stroke="#000000" points="227.5418,-27.4903 235.1469,-20.1138 224.6017,-21.1376 227.5418,-27.4903"/>
</g>
<!-- RandomGraph -->
<g id="node6" class="node">
<title>RandomGraph</title>
<g id="a_node6"><a xlink:href="RandomGraph.html" xlink:title="Network RandomGraph" target="_parent">
<polygon fill="#d0d0ff" stroke="#000000" points="176.5701,-132 95.4299,-132 95.4299,-112 176.5701,-112 176.5701,-132"/>
<text text-anchor="middle" x="136" y="-119" font-family="Helvetica,sans-Serif" font-size="10.00" fill="#000000">RandomGraph</text>
</a>
</g>
</g>
<!-- RandomGraph&#45;&gt;Node -->
<g id="edge5" class="edge">
<title>RandomGraph&#45;&gt;Node</title>
<path fill="none" stroke="#000000" d="M136,-111.9883C136,-104.9098 136,-95.1714 136,-86.4779"/>
<polygon fill="#000000" stroke="#000000" points="139.5001,-86.3038 136,-76.3039 132.5001,-86.3039 139.5001,-86.3038"/>
</g>
</g>
</svg>
