<?xml version="1.0" encoding="UTF-8" standalone="no"?>
<!DOCTYPE svg PUBLIC "-//W3C//DTD SVG 1.1//EN"
 "http://www.w3.org/Graphics/SVG/1.1/DTD/svg11.dtd">
<!-- Generated by graphviz version 2.40.1 (20161225.0304)
 -->
<!-- Title: opp Pages: 1 -->
<svg width="170pt" height="84pt"
 viewBox="0.00 0.00 170.23 84.00" xmlns="http://www.w3.org/2000/svg" xmlns:xlink="http://www.w3.org/1999/xlink">
<g id="graph0" class="graph" transform="scale(1 1) rotate(0) translate(4 80)">
<title>opp</title>
<polygon fill="transparent" stroke="transparent" points="-4,4 -4,-80 166.233,-80 166.233,4 -4,4"/>
<!-- RandomGraph -->
<g id="node1" class="node">
<title>RandomGraph</title>
<g id="a_node1"><a xlink:href="RandomGraph.html" xlink:title="Network RandomGraph" target="_parent">
<polygon fill="#9090ff" stroke="#000000" points="130.8031,-76 49.6629,-76 49.6629,-56 130.8031,-56 130.8031,-76"/>
<text text-anchor="middle" x="90.233" y="-63" font-family="Helvetica,sans-Serif" font-size="10.00" fill="#000000">RandomGraph</text>
</a>
</g>
</g>
<!-- networkTopoInfo -->
<g id="node2" class="node">
<title>networkTopoInfo</title>
<g id="a_node2"><a xlink:href="networkTopoInfo.html" xlink:title="Simple Module networkTopoInfo" target="_parent">
<polygon fill="#fffcaf" stroke="#000000" points="90.7002,-20 -.2342,-20 -.2342,0 90.7002,0 90.7002,-20"/>
<text text-anchor="middle" x="45.233" y="-7" font-family="Helvetica,sans-Serif" font-size="10.00" fill="#000000">networkTopoInfo</text>
</a>
</g>
</g>
<!-- RandomGraph&#45;&gt;networkTopoInfo -->
<g id="edge1" class="edge">
<title>RandomGraph&#45;&gt;networkTopoInfo</title>
<path fill="none" stroke="#000000" d="M82.1879,-55.9883C75.9942,-48.2806 67.2662,-37.4191 59.8476,-28.187"/>
<polygon fill="#000000" stroke="#000000" points="62.5051,-25.9066 53.5129,-20.3039 57.0486,-30.2914 62.5051,-25.9066"/>
</g>
<!-- Node -->
<g id="node3" class="node">
<title>Node</title>
<g id="a_node3"><a xlink:href="Node.html" xlink:title="Compound Module Node" target="_parent">
<polygon fill="#fffcaf" stroke="#000000" points="162.233,-20 108.233,-20 108.233,0 162.233,0 162.233,-20"/>
<text text-anchor="middle" x="135.233" y="-7" font-family="Helvetica,sans-Serif" font-size="10.00" fill="#000000">Node</text>
</a>
</g>
</g>
<!-- RandomGraph&#45;&gt;Node -->
<g id="edge2" class="edge">
<title>RandomGraph&#45;&gt;Node</title>
<path fill="none" stroke="#000000" d="M98.2781,-55.9883C104.4718,-48.2806 113.1998,-37.4191 120.6184,-28.187"/>
<polygon fill="#000000" stroke="#000000" points="123.4174,-30.2914 126.9531,-20.3039 117.9609,-25.9066 123.4174,-30.2914"/>
</g>
</g>
</svg>
